<svg id="Layer_1" data-name="Layer 1" xmlns="http://www.w3.org/2000/svg" viewBox="0 0 168.72 168.72">
  <title>home-Artboard 7</title>
  <g>
    <circle cx="84.42" cy="83.86" r="84" style="fill: #00d95a"/>
    <path d="M111.08,110.5a3.61,3.61,0,0,1-5.17,1.22c-14.29-8.82-32.23-10.64-53.52-5.78a3.76,3.76,0,1,1-1.83-7.3c23.12-5.17,43.19-3,59,6.69C111.69,106.25,112,108.68,111.08,110.5Zm7.3-16.72c-1.52,2.13-4.26,3-6.39,1.52-16.42-10-41.36-13.08-60.52-7-2.43.61-5.17-.61-5.78-3s.61-5.17,3-5.78c22.21-6.69,49.58-3.34,68.43,8.22A4.29,4.29,0,0,1,118.38,93.78Zm8.52-18.55A6.37,6.37,0,0,1,119,76.75C99.53,65.19,67,64,48.43,69.75a5.58,5.58,0,0,1-3.34-10.64c21.59-6.39,57.18-5.18,79.68,8.21A5.88,5.88,0,0,1,126.9,75.23Z" style="fill: #fff"/>
  </g>
</svg>
